<?xml version="1.0" encoding="UTF-8" standalone="no"?>
<!-- Created with Inkscape (http://www.inkscape.org/) -->

<svg
   width="992.25458"
   height="992.25458"
   viewBox="0 0 262.53402 262.53402"
   version="1.1"
   id="svg1"
   xmlns="http://www.w3.org/2000/svg"
   xmlns:svg="http://www.w3.org/2000/svg">
  <defs
     id="defs1" />
  <g
     id="layer1"
     transform="translate(-1.024643,-1.024643)">
    <circle
       style="fill:#8bd5ca;fill-opacity:1;fill-rule:nonzero;stroke:#ffffff;stroke-width:19.304;stroke-linecap:round;stroke-linejoin:round;stroke-dasharray:none;stroke-opacity:0"
       id="path1"
       cx="132.29166"
       cy="132.29166"
       r="121.61501" />
    <path
       d="m 344.94414,618.95945 q -21.6,0 -33.2,-11.2 -11.2,-11.6 -11.2,-33.2 v -193.2 q 0,-21.6 11.2,-32.8 11.6,-11.6 33.2,-11.6 h 132 q 33.2,0 33.2,32.8 0,32.8 -33.2,32.8 h -94.4 v 40.4 h 85.2 q 33.2,0 33.2,32.8 0,32.8 -33.2,32.8 h -85.2 v 44.8 h 94.4 q 33.2,0 33.2,32.8 0,32.8 -33.2,32.8 z"
       id="text1"
       style="font-weight:900;font-size:400px;font-family:'Nunito Heavy';-inkscape-font-specification:'Nunito Heavy, Heavy';white-space:pre;fill:#ffffff;stroke-width:72.96;stroke-linecap:round;stroke-linejoin:round"
       transform="matrix(0.32582556,0,0,0.32582556,0.22021132,-23.439792)"
       aria-label="E" />
    <path
       d="m 397.74414,606.95945 q -28.4,0 -28.4,-28.8 v -46.8 h -45.6 q -27.6,0 -27.6,-27.2 0,-27.2 27.6,-27.2 h 45.6 v -44.4 q 0,-28.8 28.4,-28.8 28.4,0 28.4,28.8 v 44.4 h 45.6 q 27.6,0 27.6,27.2 0,27.2 -27.6,27.2 h -45.6 v 46.8 q 0,28.8 -28.4,28.8 z"
       id="text2"
       style="font-weight:900;font-size:400px;font-family:'Nunito Heavy';-inkscape-font-specification:'Nunito Heavy, Heavy';white-space:pre;fill:#ffffff;stroke-width:72.96;stroke-linecap:round;stroke-linejoin:round"
       transform="matrix(0.32582556,0,0,0.32582556,92.697192,-97.342114)"
       aria-label="+" />
  </g>
</svg>
