<?xml version="1.0" encoding="UTF-8" standalone="no"?>
<!-- Created with Inkscape (http://www.inkscape.org/) -->

<svg
   width="992.25458"
   height="992.25458"
   viewBox="0 0 262.53402 262.53402"
   version="1.1"
   id="svg1"
   xmlns="http://www.w3.org/2000/svg"
   xmlns:svg="http://www.w3.org/2000/svg">
  <defs
     id="defs1" />
  <g
     id="layer1"
     transform="translate(-1.024643,-1.024643)">
    <circle
       style="fill:#ed8796;fill-opacity:1;fill-rule:nonzero;stroke:#ffffff;stroke-width:19.304;stroke-linecap:round;stroke-linejoin:round;stroke-dasharray:none;stroke-opacity:0"
       id="path1"
       cx="132.29166"
       cy="132.29166"
       r="121.61501" />
    <path
       d="m 429.74414,622.95945 q -17.2,0 -28.4,-7.2 -10.8,-7.6 -18,-23.6 l -92.8,-201.6 q -7.6,-16.8 -4.8,-29.6 2.8,-13.2 12.8,-20.4 10.4,-7.6 25.6,-7.6 19.2,0 28.8,8.4 10,8.4 16.8,24.8 l 61.6,142.4 61.6,-142.8 q 6.8,-16.4 16.4,-24.4 10,-8.4 28,-8.4 14.4,0 24,7.6 9.6,7.2 12,20.4 2.8,12.8 -4.8,29.6 l -92.8,201.6 q -7.2,16 -18,23.6 -10.4,7.2 -28,7.2 z m 217.60031,0 q -20.8,0 -32,-11.2 -11.2,-11.6 -11.2,-32.8 v -202 q 0,-21.2 11.2,-32.4 11.2,-11.6 32,-11.6 20.8,0 31.6,11.6 11.2,11.2 11.2,32.4 v 64 h 100 v -64 q 0,-21.2 11.2,-32.4 11.2,-11.6 32,-11.6 20.8,0 31.6,11.6 11.2,11.2 11.2,32.4 v 202 q 0,21.2 -11.2,32.8 -10.8,11.2 -31.6,11.2 -20.8,0 -32,-11.2 -11.2,-11.6 -11.2,-32.8 v -67.6 h -100 v 67.6 q 0,21.2 -10.8,32.8 -10.8,11.2 -32,11.2 z"
       id="text1"
       style="font-weight:900;font-size:400px;font-family:'Nunito Heavy';-inkscape-font-specification:'Nunito Heavy, Heavy';white-space:pre;fill:#ffffff;stroke-width:72.96;stroke-linecap:round;stroke-linejoin:round"
       transform="matrix(0.32582556,0,0,0.32582556,-56.538702,-23.439792)"
       aria-label="VH" />
  </g>
</svg>
